# WaveFront *.obj file (generated by Autodesk ATF)

mtllib DoorRight.mtl

g Body1

v 100.000000 50.000000 0.000000
v 100.000000 125.000000 0.000000
v 125.000000 125.000000 0.000000
v 125.000000 50.000000 0.000000
v 100.000000 125.000000 225.000000
v 125.000000 125.000000 225.000000
v 100.000000 50.000000 200.000000
v 125.000000 50.000000 200.000000
v 100.000000 75.000000 225.000000
v 100.000000 75.000000 200.000000
v 125.000000 75.000000 200.000000
v 125.000000 75.000000 225.000000
vt -10.000000 12.500000 0.000000
vt -12.500000 12.500000 0.000000
vt -10.000000 5.000000 0.000000
vt -12.500000 5.000000 0.000000
vt 2.500000 22.500000 0.000000
vt -0.000000 22.500000 0.000000
vt 2.500000 0.000000 0.000000
vt -0.000000 0.000000 0.000000
vt 10.000000 2.500000 0.000000
vt -10.000000 2.500000 0.000000
vt 10.000000 0.000000 0.000000
vt -10.000000 0.000000 0.000000
vt -0.000000 2.500000 0.000000
vt -2.500000 2.500000 0.000000
vt -0.000000 0.000000 0.000000
vt -2.500000 0.000000 0.000000
vt 17.500000 20.000000 0.000000
vt 17.500000 0.000000 0.000000
vt 20.000000 20.000000 0.000000
vt 25.000000 0.000000 0.000000
vt 25.000000 22.500000 0.000000
vt 20.000000 22.500000 0.000000
vt -2.500000 0.000000 0.000000
vt -0.000000 0.000000 0.000000
vt -2.500000 2.500000 0.000000
vt -0.000000 2.500000 0.000000
vt 10.000000 7.500000 0.000000
vt 12.500000 7.500000 0.000000
vt 10.000000 12.500000 0.000000
vt 12.500000 12.500000 0.000000
vt 11.250000 7.500000 0.000000
vt 11.250000 12.500000 0.000000
vt 8.750000 7.500000 0.000000
vt -11.250000 12.500000 0.000000
vt -11.250000 5.000000 0.000000
vt 8.750000 5.000000 0.000000
vn -0.000000 0.000000 -0.100000
vn -0.000000 0.000000 -0.100000
vn -0.000000 0.000000 -0.100000
vn -0.000000 0.000000 -0.100000
vn 0.000000 0.100000 0.000000
vn 0.000000 0.100000 0.000000
vn 0.000000 0.100000 0.000000
vn 0.000000 0.100000 0.000000
vn 0.000000 -0.100000 0.000000
vn 0.000000 -0.100000 0.000000
vn 0.000000 -0.100000 0.000000
vn 0.000000 -0.100000 0.000000
vn 0.000000 -0.100000 0.000000
vn 0.000000 -0.100000 0.000000
vn 0.000000 -0.100000 0.000000
vn 0.000000 -0.100000 0.000000
vn 0.100000 0.000000 0.000000
vn 0.100000 0.000000 0.000000
vn 0.100000 0.000000 0.000000
vn 0.100000 0.000000 0.000000
vn 0.100000 0.000000 0.000000
vn 0.100000 0.000000 0.000000
vn 0.000000 0.000000 0.100000
vn 0.000000 0.000000 0.100000
vn 0.000000 0.000000 0.100000
vn 0.000000 0.000000 0.100000
vn 0.000000 0.000000 0.100000
vn 0.000000 0.000000 0.100000
vn 0.000000 0.000000 0.100000
vn 0.000000 0.000000 0.100000
vn -0.100000 0.000000 0.000000
vn -0.100000 0.000000 0.000000
vn -0.100000 0.000000 0.000000
vn -0.100000 0.000000 0.000000
vn -0.100000 0.000000 0.000000
vn -0.100000 0.000000 0.000000
usemtl Steel_-_Satin
f 2/1/1 3/2/2 1/3/3
f 1/3/3 3/2/2 4/4/4
f 5/5/5 6/6/6 2/7/7
f 2/7/7 6/6/6 3/8/8
f 7/9/9 1/10/10 8/11/11
f 8/11/11 1/10/10 4/12/12
f 9/13/13 10/14/14 12/15/15
f 12/15/15 10/14/14 11/16/16
f 8/17/17 4/18/18 11/19/19
f 11/19/19 4/18/18 3/20/20
f 11/19/19 3/20/20 6/21/21
f 6/21/21 12/22/22 11/19/19
f 8/23/23 11/24/24 7/25/25
f 7/25/25 11/24/24 10/26/26
f 9/27/27 12/28/28 5/29/29
f 5/29/29 12/28/28 6/30/30
f 9/31/31 5/32/32 10/33/33
f 10/33/33 5/32/32 2/34/34
f 10/33/33 2/34/34 1/35/35
f 1/35/35 7/36/36 10/33/33
# 12 vertices
# 36 texture params
# 36 normals
# 20 facets

# 1 groups
