# WaveFront *.obj file (generated by Autodesk ATF)

mtllib DoorLeft.mtl

g Body1

v 100.000000 -75.000000 225.000000
v 100.000000 -125.000000 225.000000
v 125.000000 -125.000000 225.000000
v 125.000000 -75.000000 225.000000
v 100.000000 -125.000000 0.000000
v 100.000000 -50.000000 0.000000
v 125.000000 -50.000000 0.000000
v 125.000000 -125.000000 0.000000
v 125.000000 -50.000000 200.000000
v 125.000000 -75.000000 200.000000
v 100.000000 -50.000000 200.000000
v 100.000000 -75.000000 200.000000
vt 10.000000 -12.500000 0.000000
vt 12.500000 -12.500000 0.000000
vt 10.000000 -7.500000 0.000000
vt 12.500000 -7.500000 0.000000
vt -10.000000 -5.000000 0.000000
vt -12.500000 -5.000000 0.000000
vt -10.000000 -12.500000 0.000000
vt -12.500000 -12.500000 0.000000
vt 22.500000 0.000000 0.000000
vt 25.000000 0.000000 0.000000
vt 22.500000 22.500000 0.000000
vt 25.000000 22.500000 0.000000
vt 7.500000 20.000000 0.000000
vt 5.000000 20.000000 0.000000
vt 7.500000 0.000000 0.000000
vt 0.000000 0.000000 0.000000
vt 0.000000 22.500000 0.000000
vt 5.000000 22.500000 0.000000
vt -15.000000 2.500000 0.000000
vt -15.000000 22.500000 0.000000
vt -17.500000 2.500000 0.000000
vt -22.500000 22.500000 0.000000
vt -22.500000 0.000000 0.000000
vt -17.500000 0.000000 0.000000
vt -2.500000 2.500000 0.000000
vt -5.000000 2.500000 0.000000
vt -2.500000 0.000000 0.000000
vt -5.000000 0.000000 0.000000
vt -0.000000 2.500000 0.000000
vt -2.500000 2.500000 0.000000
vt -0.000000 0.000000 0.000000
vt -2.500000 0.000000 0.000000
vt -0.000000 2.500000 0.000000
vt -20.000000 2.500000 0.000000
vt -0.000000 0.000000 0.000000
vt -20.000000 0.000000 0.000000
vn 0.000000 0.000000 0.100000
vn 0.000000 0.000000 0.100000
vn 0.000000 0.000000 0.100000
vn 0.000000 0.000000 0.100000
vn -0.000000 0.000000 -0.100000
vn -0.000000 0.000000 -0.100000
vn -0.000000 0.000000 -0.100000
vn -0.000000 0.000000 -0.100000
vn 0.000000 -0.100000 0.000000
vn 0.000000 -0.100000 0.000000
vn 0.000000 -0.100000 0.000000
vn 0.000000 -0.100000 0.000000
vn 0.100000 0.000000 0.000000
vn 0.100000 0.000000 0.000000
vn 0.100000 0.000000 0.000000
vn 0.100000 0.000000 0.000000
vn 0.100000 0.000000 0.000000
vn 0.100000 0.000000 0.000000
vn -0.100000 0.000000 0.000000
vn -0.100000 0.000000 0.000000
vn -0.100000 0.000000 0.000000
vn -0.100000 0.000000 0.000000
vn -0.100000 0.000000 0.000000
vn -0.100000 0.000000 0.000000
vn 0.000000 0.000000 0.100000
vn 0.000000 0.000000 0.100000
vn 0.000000 0.000000 0.100000
vn 0.000000 0.000000 0.100000
vn -0.000000 0.100000 -0.000000
vn -0.000000 0.100000 -0.000000
vn -0.000000 0.100000 -0.000000
vn -0.000000 0.100000 -0.000000
vn 0.000000 0.100000 0.000000
vn 0.000000 0.100000 0.000000
vn 0.000000 0.100000 0.000000
vn 0.000000 0.100000 0.000000
usemtl Steel_-_Satin
f 2/1/1 3/2/2 1/3/3
f 1/3/3 3/2/2 4/4/4
f 6/5/5 7/6/6 5/7/7
f 5/7/7 7/6/6 8/8/8
f 5/9/9 8/10/10 2/11/11
f 2/11/11 8/10/10 3/12/12
f 9/13/13 10/14/14 7/15/15
f 7/15/15 10/14/14 8/16/16
f 8/16/16 10/14/14 3/17/17
f 3/17/17 10/14/14 4/18/18
f 11/19/19 6/20/20 12/21/21
f 12/21/21 6/20/20 5/22/22
f 12/21/21 5/22/22 2/23/23
f 2/23/23 1/24/24 12/21/21
f 11/25/25 12/26/26 9/27/27
f 9/27/27 12/26/26 10/28/28
f 12/29/29 1/30/30 10/31/31
f 10/31/31 1/30/30 4/32/32
f 6/33/33 11/34/34 7/35/35
f 7/35/35 11/34/34 9/36/36
# 12 vertices
# 36 texture params
# 36 normals
# 20 facets

# 1 groups
