# WaveFront *.obj file (generated by Autodesk ATF)

mtllib WallRight.mtl

g Body1

v -100.000000 100.000000 225.000000
v -100.000000 125.000000 225.000000
v -100.000000 125.000000 0.000000
v -100.000000 100.000000 0.000000
v 100.000000 125.000000 0.000000
v 100.000000 100.000000 0.000000
v -75.000000 125.000000 225.000000
v -75.000000 125.000000 200.000000
v -25.000000 125.000000 200.000000
v -25.000000 125.000000 225.000000
v 25.000000 125.000000 225.000000
v 25.000000 125.000000 200.000000
v 75.000000 125.000000 200.000000
v 75.000000 125.000000 225.000000
v 100.000000 125.000000 225.000000
v -75.000000 100.000000 225.000000
v 100.000000 100.000000 225.000000
v 25.000000 100.000000 200.000000
v 75.000000 100.000000 200.000000
v 25.000000 100.000000 225.000000
v 75.000000 100.000000 225.000000
v -75.000000 100.000000 200.000000
v -25.000000 100.000000 200.000000
v -25.000000 100.000000 225.000000
vt 11.250000 12.500000 0.000000
vt -11.250000 12.500000 0.000000
vt 11.250000 10.000000 0.000000
vt -11.250000 10.000000 0.000000
vt 10.000000 12.500000 0.000000
vt -10.000000 12.500000 0.000000
vt 10.000000 10.000000 0.000000
vt -10.000000 10.000000 0.000000
vt 22.500000 22.500000 0.000000
vt 20.000000 20.000000 0.000000
vt 22.500000 0.000000 0.000000
vt 15.000000 20.000000 0.000000
vt 10.000000 20.000000 0.000000
vt 10.000000 22.500000 0.000000
vt 15.000000 22.500000 0.000000
vt 20.000000 22.500000 0.000000
vt 2.500000 0.000000 0.000000
vt 5.000000 20.000000 0.000000
vt 2.500000 22.500000 0.000000
vt 5.000000 22.500000 0.000000
vt -10.000000 10.000000 0.000000
vt -7.500000 10.000000 0.000000
vt -10.000000 12.500000 0.000000
vt -7.500000 12.500000 0.000000
vt -11.250000 10.000000 0.000000
vt 11.250000 10.000000 0.000000
vt -11.250000 12.500000 0.000000
vt 11.250000 12.500000 0.000000
vt -0.000000 2.500000 0.000000
vt -5.000000 2.500000 0.000000
vt -0.000000 0.000000 0.000000
vt -5.000000 0.000000 0.000000
vt -0.000000 2.500000 0.000000
vt -2.500000 2.500000 0.000000
vt -0.000000 0.000000 0.000000
vt -2.500000 0.000000 0.000000
vt -0.000000 2.500000 0.000000
vt -2.500000 2.500000 0.000000
vt -0.000000 0.000000 0.000000
vt -2.500000 0.000000 0.000000
vt -0.000000 2.500000 0.000000
vt -5.000000 2.500000 0.000000
vt -0.000000 0.000000 0.000000
vt -5.000000 0.000000 0.000000
vt -0.000000 2.500000 0.000000
vt -2.500000 2.500000 0.000000
vt -0.000000 0.000000 0.000000
vt -2.500000 0.000000 0.000000
vt -0.000000 2.500000 0.000000
vt -2.500000 2.500000 0.000000
vt -0.000000 0.000000 0.000000
vt -2.500000 0.000000 0.000000
vt -17.500000 0.000000 0.000000
vt -17.500000 2.500000 0.000000
vt -20.000000 0.000000 0.000000
vt -20.000000 22.500000 0.000000
vt -12.500000 2.500000 0.000000
vt -7.500000 2.500000 0.000000
vt -7.500000 0.000000 0.000000
vt -12.500000 0.000000 0.000000
vt -0.000000 22.500000 0.000000
vt -2.500000 2.500000 0.000000
vt -0.000000 0.000000 0.000000
vt -2.500000 0.000000 0.000000
vt 2.500000 12.500000 0.000000
vt -2.500000 12.500000 0.000000
vt 2.500000 10.000000 0.000000
vt -2.500000 10.000000 0.000000
vt 10.000000 12.500000 0.000000
vt 7.500000 12.500000 0.000000
vt 10.000000 10.000000 0.000000
vt 7.500000 10.000000 0.000000
vn -0.100000 0.000000 0.000000
vn -0.100000 0.000000 0.000000
vn -0.100000 0.000000 0.000000
vn -0.100000 0.000000 0.000000
vn -0.000000 0.000000 -0.100000
vn -0.000000 0.000000 -0.100000
vn -0.000000 0.000000 -0.100000
vn -0.000000 0.000000 -0.100000
vn 0.000000 0.100000 0.000000
vn 0.000000 0.100000 0.000000
vn 0.000000 0.100000 0.000000
vn 0.000000 0.100000 0.000000
vn 0.000000 0.100000 0.000000
vn 0.000000 0.100000 0.000000
vn 0.000000 0.100000 0.000000
vn 0.000000 0.100000 0.000000
vn 0.000000 0.100000 0.000000
vn 0.000000 0.100000 0.000000
vn 0.000000 0.100000 0.000000
vn 0.000000 0.100000 0.000000
vn 0.000000 0.000000 0.100000
vn 0.000000 0.000000 0.100000
vn 0.000000 0.000000 0.100000
vn 0.000000 0.000000 0.100000
vn 0.100000 0.000000 0.000000
vn 0.100000 0.000000 0.000000
vn 0.100000 0.000000 0.000000
vn 0.100000 0.000000 0.000000
vn 0.000000 0.000000 0.100000
vn 0.000000 0.000000 0.100000
vn 0.000000 0.000000 0.100000
vn 0.000000 0.000000 0.100000
vn 0.100000 0.000000 0.000000
vn 0.100000 0.000000 0.000000
vn 0.100000 0.000000 0.000000
vn 0.100000 0.000000 0.000000
vn -0.100000 0.000000 0.000000
vn -0.100000 0.000000 0.000000
vn -0.100000 0.000000 0.000000
vn -0.100000 0.000000 0.000000
vn 0.000000 0.000000 0.100000
vn 0.000000 0.000000 0.100000
vn 0.000000 0.000000 0.100000
vn 0.000000 0.000000 0.100000
vn 0.100000 0.000000 0.000000
vn 0.100000 0.000000 0.000000
vn 0.100000 0.000000 0.000000
vn 0.100000 0.000000 0.000000
vn -0.100000 0.000000 0.000000
vn -0.100000 0.000000 0.000000
vn -0.100000 0.000000 0.000000
vn -0.100000 0.000000 0.000000
vn 0.000000 -0.100000 0.000000
vn 0.000000 -0.100000 0.000000
vn 0.000000 -0.100000 0.000000
vn 0.000000 -0.100000 0.000000
vn 0.000000 -0.100000 0.000000
vn 0.000000 -0.100000 0.000000
vn 0.000000 -0.100000 0.000000
vn 0.000000 -0.100000 0.000000
vn 0.000000 -0.100000 0.000000
vn 0.000000 -0.100000 0.000000
vn 0.000000 -0.100000 0.000000
vn 0.000000 -0.100000 0.000000
vn 0.000000 0.000000 0.100000
vn 0.000000 0.000000 0.100000
vn 0.000000 0.000000 0.100000
vn 0.000000 0.000000 0.100000
vn 0.000000 0.000000 0.100000
vn 0.000000 0.000000 0.100000
vn 0.000000 0.000000 0.100000
vn 0.000000 0.000000 0.100000
usemtl Steel_-_Satin
f 2/1/1 3/2/2 1/3/3
f 1/3/3 3/2/2 4/4/4
f 3/5/5 5/6/6 4/7/7
f 4/7/7 5/6/6 6/8/8
f 2/9/9 8/10/10 3/11/11
f 3/11/11 8/10/10 9/12/12
f 3/11/11 9/12/12 12/13/13
f 12/13/13 9/12/12 11/14/14
f 11/14/14 9/12/12 10/15/15
f 2/9/9 7/16/16 8/10/10
f 3/11/11 12/13/13 5/17/17
f 5/17/17 12/13/13 13/18/18
f 5/17/17 13/18/18 15/19/19
f 15/19/19 13/18/18 14/20/20
f 1/21/21 16/22/22 2/23/23
f 2/23/23 16/22/22 7/24/24
f 17/25/25 6/26/26 15/27/27
f 15/27/27 6/26/26 5/28/28
f 18/29/29 19/30/30 12/31/31
f 12/31/31 19/30/30 13/32/32
f 20/33/33 18/34/34 11/35/35
f 11/35/35 18/34/34 12/36/36
f 19/37/37 21/38/38 13/39/39
f 13/39/39 21/38/38 14/40/40
f 22/41/41 23/42/42 8/43/43
f 8/43/43 23/42/42 9/44/44
f 16/45/45 22/46/46 7/47/47
f 7/47/47 22/46/46 8/48/48
f 23/49/49 24/50/50 9/51/51
f 9/51/51 24/50/50 10/52/52
f 21/53/53 19/54/54 17/55/55
f 17/55/55 19/54/54 6/56/56
f 6/56/56 19/54/54 18/57/57
f 6/56/56 18/57/57 23/58/58
f 23/58/58 18/57/57 24/59/59
f 24/59/59 18/57/57 20/60/60
f 6/56/56 23/58/58 4/61/61
f 4/61/61 23/58/58 22/62/62
f 4/61/61 22/62/62 1/63/63
f 1/63/63 22/62/62 16/64/64
f 11/65/65 10/66/66 20/67/67
f 20/67/67 10/66/66 24/68/68
f 15/69/69 14/70/70 17/71/71
f 17/71/71 14/70/70 21/72/72
# 24 vertices
# 72 texture params
# 72 normals
# 44 facets

# 1 groups
